<?xml version="1.0" standalone="no"?><!DOCTYPE svg PUBLIC "-//W3C//DTD SVG 1.1//EN" "http://www.w3.org/Graphics/SVG/1.1/DTD/svg11.dtd"><svg t="1704381549856" class="icon" viewBox="0 0 1024 1024" version="1.1" xmlns="http://www.w3.org/2000/svg" p-id="6203" xmlns:xlink="http://www.w3.org/1999/xlink" width="200" height="200"><path d="M334.08 104.768c7.04-12.416-6.08-26.368-19.008-20.288a469.44 469.44 0 0 0-270.08 425.088 468.736 468.736 0 0 0 469.44 469.44 469.44 469.44 0 0 0 425.088-270.08c6.08-12.928-7.872-26.048-20.288-19.008a427.328 427.328 0 0 1-211.392 55.552c-237.312 0-429.312-192-429.312-429.312 0-76.8 20.16-148.992 55.552-211.392z m434.432 200.256a19.776 19.776 0 0 0-37.12 0l-18.368 50.56a131.648 131.648 0 0 1-78.72 78.72l-50.56 18.368a19.776 19.776 0 0 0 0 37.12l50.56 18.368a131.648 131.648 0 0 1 78.72 78.72l18.368 50.56c6.336 17.28 30.848 17.28 37.12 0l18.368-50.56a131.712 131.712 0 0 1 78.72-78.72l50.56-18.368a19.776 19.776 0 0 0 0-37.12l-50.56-18.432a131.648 131.648 0 0 1-78.72-78.72l-18.368-50.56zM550.592 105.536a16.32 16.32 0 0 0-30.72 0l-3.584 9.984a67.52 67.52 0 0 1-40.32 40.32l-9.984 3.648a16.32 16.32 0 0 0 0 30.656l9.92 3.648c18.816 6.784 33.6 21.568 40.384 40.32l3.648 9.984a16.32 16.32 0 0 0 30.656 0l3.584-9.984c6.848-18.752 21.632-33.536 40.384-40.32l9.984-3.648a16.32 16.32 0 0 0 0-30.656l-9.984-3.584a67.52 67.52 0 0 1-40.32-40.384l-3.648-9.984z" fill="#F9C73D" p-id="6204"></path></svg>