<?xml version="1.0" standalone="no"?><!DOCTYPE svg PUBLIC "-//W3C//DTD SVG 1.1//EN" "http://www.w3.org/Graphics/SVG/1.1/DTD/svg11.dtd"><svg t="1703319331699" class="icon" viewBox="0 0 1024 1024" version="1.1" xmlns="http://www.w3.org/2000/svg" p-id="6358" xmlns:xlink="http://www.w3.org/1999/xlink" width="200" height="200"><path d="M494.40237037 75.2146963m27.79211852 0l161.17001481 0q27.79211852 0 27.79211852 27.79211852l0 818.90872888q0 27.79211852-27.79211852 27.79211852l-161.17001481 0q-27.79211852 0-27.79211852-27.79211852l0-818.90872888q0-27.79211852 27.79211852-27.79211852Z" fill="#F9C73D" p-id="6359" data-spm-anchor-id="a313x.search_index.0.i13.18553a81Mjab52" class="selected"></path><path d="M228.01066667 952.18346667l-153.16005926-50.36562964a27.91348148 27.91348148 0 0 1-17.71899259-35.07389628l254.86222221-778.05795557a27.79211852 27.79211852 0 0 1 35.0738963-17.84035555L500.22779259 121.21125925a27.79211852 27.79211852 0 0 1 17.71899259 35.0738963L263.08456297 934.34311111a27.91348148 27.91348148 0 0 1-35.0738963 17.84035556z" fill="#F9C73D" p-id="6360" data-spm-anchor-id="a313x.search_index.0.i10.18553a81Mjab52" class="selected"></path><path d="M751.44912592 75.09333333m27.79211853 0l161.1700148 0q27.79211852 0 27.79211853 27.79211852l0 818.9087289q0 27.79211852-27.79211853 27.7921185l-161.1700148 0q-27.79211852 0-27.79211853-27.7921185l0-818.9087289q0-27.79211852 27.79211853-27.79211852Z" fill="#F9C73D" p-id="6361" data-spm-anchor-id="a313x.search_index.0.i15.18553a81Mjab52" class="selected"></path><path d="M396.94791111 324.61558518L324.73694815 300.82844445l12.62174815-38.22933334 72.0896 23.66577778-12.50038519 38.35069629zM374.3744 393.54974815l-72.21096297-23.66577778 12.62174815-38.35069629 72.0896 23.78714074-12.50038518 38.22933333zM252.76871111 764.79905185l-72.21096296-23.78714074 12.62174815-38.22933333 72.21096295 23.66577777-12.62174814 38.3506963zM821.83964445 260.29321482h75.9732148v40.2803674h-75.9732148zM821.83964445 332.86826667h75.9732148v40.28036741h-75.9732148zM821.96100741 723.65700741H897.93422222v40.28036741h-75.97321481zM573.77374815 260.41457778h75.97321482v40.2803674h-75.97321482zM573.89511111 332.98962963h75.97321481v40.2803674H573.89511111zM573.89511111 723.65700741h75.97321481v40.28036741H573.89511111z" fill="#FFFFFF" p-id="6362"></path></svg>