<?xml version="1.0" standalone="no"?><!DOCTYPE svg PUBLIC "-//W3C//DTD SVG 1.1//EN" "http://www.w3.org/Graphics/SVG/1.1/DTD/svg11.dtd"><svg t="1703321658130" class="icon" viewBox="0 0 1024 1024" version="1.1" xmlns="http://www.w3.org/2000/svg" p-id="10665" data-spm-anchor-id="a313x.search_index.0.i21.18553a81Mjab52" xmlns:xlink="http://www.w3.org/1999/xlink" width="200" height="200"><path d="M784.8 892H239.2c-59.2 0-107.2-48-107.2-107.2V239.2c0-59.2 48-107.2 107.2-107.2H784c59.2 0 107.2 48 107.2 107.2V784c0.8 60-47.2 108-106.4 108z m-545.6-728c-41.6 0-75.2 33.6-75.2 75.2V784c0 41.6 33.6 75.2 75.2 75.2H784c41.6 0 75.2-33.6 75.2-75.2V239.2c0-41.6-33.6-75.2-75.2-75.2H239.2z" fill="#F9C73D" p-id="10666" data-spm-anchor-id="a313x.search_index.0.i17.18553a81Mjab52" class="selected"></path><path d="M785.6 793.6H238.4c-4.8 0-8-3.2-8-8V238.4c0-4.8 3.2-8 8-8h547.2c4.8 0 8 3.2 8 8v547.2c0 4-4 8-8 8z m-539.2-16h531.2V246.4H246.4v531.2z" fill="#F9C73D" p-id="10667" data-spm-anchor-id="a313x.search_index.0.i22.18553a81Mjab52" class="selected"></path><path d="M308 460c-4.8 0-8-3.2-8-8v-144c0-4.8 3.2-8 8-8h144c4.8 0 8 3.2 8 8s-3.2 8-8 8h-136v136c0 4-4 8-8 8zM452 724h-144c-4.8 0-8-3.2-8-8v-144c0-4.8 3.2-8 8-8s8 3.2 8 8v136h136c4.8 0 8 3.2 8 8s-4 8-8 8zM716 724h-144c-4.8 0-8-3.2-8-8s3.2-8 8-8h136v-136c0-4.8 3.2-8 8-8s8 3.2 8 8v144c0 4.8-3.2 8-8 8zM716 460c-4.8 0-8-3.2-8-8v-136h-136c-4.8 0-8-3.2-8-8s3.2-8 8-8h144c4.8 0 8 3.2 8 8v144c0 4-3.2 8-8 8zM269.6 115.2c-8.8 0-16-7.2-16-16V20c0-8.8 7.2-16 16-16s16 7.2 16 16v79.2c0 8.8-7.2 16-16 16zM431.2 115.2c-8.8 0-16-7.2-16-16V20c0-8.8 7.2-16 16-16s16 7.2 16 16v79.2c0 8.8-7.2 16-16 16zM592.8 115.2c-8.8 0-16-7.2-16-16V20c0-8.8 7.2-16 16-16s16 7.2 16 16v79.2c0 8.8-7.2 16-16 16zM754.4 115.2c-8.8 0-16-7.2-16-16V20c0-8.8 7.2-16 16-16s16 7.2 16 16v79.2c0 8.8-7.2 16-16 16zM269.6 1020c-8.8 0-16-7.2-16-16v-79.2c0-8.8 7.2-16 16-16s16 7.2 16 16v79.2c0 8.8-7.2 16-16 16zM431.2 1020c-8.8 0-16-7.2-16-16v-79.2c0-8.8 7.2-16 16-16s16 7.2 16 16v79.2c0 8.8-7.2 16-16 16zM592.8 1020c-8.8 0-16-7.2-16-16v-79.2c0-8.8 7.2-16 16-16s16 7.2 16 16v79.2c0 8.8-7.2 16-16 16zM754.4 1020c-8.8 0-16-7.2-16-16v-79.2c0-8.8 7.2-16 16-16s16 7.2 16 16v79.2c0 8.8-7.2 16-16 16zM1004 285.6h-79.2c-8.8 0-16-7.2-16-16s7.2-16 16-16h79.2c8.8 0 16 7.2 16 16s-7.2 16-16 16zM1004 447.2h-79.2c-8.8 0-16-7.2-16-16s7.2-16 16-16h79.2c8.8 0 16 7.2 16 16s-7.2 16-16 16zM1004 608.8h-79.2c-8.8 0-16-7.2-16-16s7.2-16 16-16h79.2c8.8 0 16 7.2 16 16s-7.2 16-16 16zM1004 770.4h-79.2c-8.8 0-16-7.2-16-16s7.2-16 16-16h79.2c8.8 0 16 7.2 16 16s-7.2 16-16 16zM99.2 285.6H20c-8.8 0-16-7.2-16-16s7.2-16 16-16h79.2c8.8 0 16 7.2 16 16s-7.2 16-16 16zM99.2 447.2H20c-8.8 0-16-7.2-16-16s7.2-16 16-16h79.2c8.8 0 16 7.2 16 16s-7.2 16-16 16zM99.2 608.8H20c-8.8 0-16-7.2-16-16s7.2-16 16-16h79.2c8.8 0 16 7.2 16 16s-7.2 16-16 16zM99.2 770.4H20c-8.8 0-16-7.2-16-16s7.2-16 16-16h79.2c8.8 0 16 7.2 16 16s-7.2 16-16 16z" fill="#F9C73D" p-id="10668" data-spm-anchor-id="a313x.search_index.0.i20.18553a81Mjab52" class="selected"></path></svg>